<svg id="Layer_1" data-name="Layer 1" xmlns="http://www.w3.org/2000/svg" viewBox="0 0 24 24">
    <defs>
        <style>.cls-1,.cls-2{fill:#f4f6f8;}.cls-2{fill-rule:evenodd;}</style>
    </defs>
    <path class="cls-1" d="M2.75,10.3A.75.75,0,1,0,2,9.55.76.76,0,0,0,2.75,10.3Z"/>
    <path class="cls-1" d="M21.25,10.3a.75.75,0,1,0-.75-.75A.76.76,0,0,0,21.25,10.3Z"/>
    <path class="cls-1" d="M12,7.2A1.2,1.2,0,1,0,10.8,6,1.2,1.2,0,0,0,12,7.2Z"/>
    <path class="cls-2"
          d="M15.84,15.05,12,7,8.16,15.05,3,10.15a24.62,24.62,0,0,1,2.09,6.42A24.13,24.13,0,0,1,4.86,21H19.14a24.16,24.16,0,0,1-.23-4.34A24.75,24.75,0,0,1,21,10.15Zm-4,2.86a.65.65,0,0,0-.64-.59.82.82,0,0,0-.68.39.84.84,0,0,0-.68-.39.65.65,0,0,0-.64.59.9.9,0,0,0,.25.63l.25.26h0a4,4,0,0,1,.82,1,4,4,0,0,1,.82-1h0l.25-.26A1,1,0,0,0,11.84,17.91Zm2.27.46a.8.8,0,0,1,.26-.05.59.59,0,1,1,0,1.17.69.69,0,0,1-.57-.29,1.18,1.18,0,0,0,.29.76h-.74a1.18,1.18,0,0,0,.29-.76.69.69,0,0,1-.57.29.59.59,0,1,1,0-1.17.8.8,0,0,1,.26.05.57.57,0,0,1-.28-.47.68.68,0,0,1,1.34,0A.57.57,0,0,1,14.11,18.37ZM16.8,17a6.39,6.39,0,0,1-1.2,1.5A6.24,6.24,0,0,1,16.8,20,6,6,0,0,1,18,18.5,6.14,6.14,0,0,1,16.8,17ZM8,17.94a2.44,2.44,0,0,1,.24.25.87.87,0,0,1,.24.61.62.62,0,0,1-.62.56.77.77,0,0,1-.56-.27,1.31,1.31,0,0,0,.32.73h-.8a1.31,1.31,0,0,0,.32-.73.77.77,0,0,1-.57.27A.62.62,0,0,1,6,18.8a.87.87,0,0,1,.24-.61,2.44,2.44,0,0,1,.24-.25A3.83,3.83,0,0,0,7.26,17,3.83,3.83,0,0,0,8,17.94Z"/>
</svg>
