<svg xmlns="http://www.w3.org/2000/svg" viewBox="0 0 24 24" width="24" height="24">
  <path fill="#f4f6f8" d="M2.75 10.3A.75.75 0 1 0 2 9.55a.76.76 0 0 0 .75.75m18.5 0a.75.75 0 1 0-.75-.75.76.76 0 0 0 .75.75M12 7.2A1.2 1.2 0 1 0 10.8 6 1.2 1.2 0 0 0 12 7.2" />
  <path fill="#f4f6f8" fill-rule="evenodd" d="M15.84 15.05 12 7l-3.84 8.05L3 10.15a24.6 24.6 0 0 1 2.09 6.42A24 24 0 0 1 4.86 21h14.28a24 24 0 0 1-.23-4.34A24.8 24.8 0 0 1 21 10.15Zm-4 2.86a.65.65 0 0 0-.64-.59.82.82 0 0 0-.68.39.84.84 0 0 0-.68-.39.65.65 0 0 0-.64.59.9.9 0 0 0 .25.63l.25.26a4 4 0 0 1 .82 1 4 4 0 0 1 .82-1l.25-.26a1 1 0 0 0 .25-.63m2.27.46a.8.8 0 0 1 .26-.05.59.59 0 1 1 0 1.17.69.69 0 0 1-.57-.29 1.18 1.18 0 0 0 .29.76h-.74a1.18 1.18 0 0 0 .29-.76.69.69 0 0 1-.57.29.59.59 0 1 1 0-1.17.8.8 0 0 1 .26.05.57.57 0 0 1-.28-.47.68.68 0 0 1 1.34 0 .57.57 0 0 1-.28.47M16.8 17a6.4 6.4 0 0 1-1.2 1.5 6.2 6.2 0 0 1 1.2 1.5 6 6 0 0 1 1.2-1.5 6.1 6.1 0 0 1-1.2-1.5m-8.8.94a2.4 2.4 0 0 1 .24.25.87.87 0 0 1 .24.61.62.62 0 0 1-.62.56.77.77 0 0 1-.56-.27 1.3 1.3 0 0 0 .32.73h-.8a1.3 1.3 0 0 0 .32-.73.77.77 0 0 1-.57.27.62.62 0 0 1-.57-.56.87.87 0 0 1 .24-.61 2.4 2.4 0 0 1 .24-.25 3.8 3.8 0 0 0 .78-.94 3.8 3.8 0 0 0 .74.94" />
</svg>
